<svg width="17" height="17" viewBox="0 0 17 17" fill="none" xmlns="http://www.w3.org/2000/svg">
<g id="Group">
<path id="Vector" d="M13.5 15.7916H2.5C1.41667 15.7916 0.5 14.9166 0.5 13.7916V4.20825C0.5 3.12492 1.375 2.20825 2.5 2.20825H13.5417C14.625 2.20825 15.5417 3.08325 15.5417 4.20825V13.7916C15.5 14.8749 14.625 15.7916 13.5 15.7916Z" stroke="white" stroke-miterlimit="10"/>
<path id="Vector_2" d="M15.5 6.33325H0.5" stroke="white" stroke-miterlimit="10"/>
<g id="Group_2">
<path id="Vector_3" d="M4.66667 1.5V2.91667" stroke="white" stroke-width="1.5" stroke-miterlimit="10" stroke-linecap="round"/>
<path id="Vector_4" d="M11.3333 1.5V2.91667" stroke="white" stroke-width="1.5" stroke-miterlimit="10" stroke-linecap="round"/>
</g>
<g id="Group_3">
<path id="Vector_5" d="M3.95833 10.0835C4.30351 10.0835 4.58333 9.80367 4.58333 9.4585C4.58333 9.11332 4.30351 8.8335 3.95833 8.8335C3.61315 8.8335 3.33333 9.11332 3.33333 9.4585C3.33333 9.80367 3.61315 10.0835 3.95833 10.0835Z" fill="white"/>
<path id="Vector_6" d="M8.08333 10.0835C8.42851 10.0835 8.70833 9.80367 8.70833 9.4585C8.70833 9.11332 8.42851 8.8335 8.08333 8.8335C7.73815 8.8335 7.45833 9.11332 7.45833 9.4585C7.45833 9.80367 7.73815 10.0835 8.08333 10.0835Z" fill="white"/>
<path id="Vector_7" d="M12.0417 9.91675C12.3868 9.91675 12.6667 9.63693 12.6667 9.29175C12.6667 8.94657 12.3868 8.66675 12.0417 8.66675C11.6965 8.66675 11.4167 8.94657 11.4167 9.29175C11.4167 9.63693 11.6965 9.91675 12.0417 9.91675Z" fill="white"/>
<path id="Vector_8" d="M3.95833 13.2085C4.30351 13.2085 4.58333 12.9287 4.58333 12.5835C4.58333 12.2383 4.30351 11.9585 3.95833 11.9585C3.61315 11.9585 3.33333 12.2383 3.33333 12.5835C3.33333 12.9287 3.61315 13.2085 3.95833 13.2085Z" fill="white"/>
<path id="Vector_9" d="M8.08333 13.2085C8.42851 13.2085 8.70833 12.9287 8.70833 12.5835C8.70833 12.2383 8.42851 11.9585 8.08333 11.9585C7.73815 11.9585 7.45833 12.2383 7.45833 12.5835C7.45833 12.9287 7.73815 13.2085 8.08333 13.2085Z" fill="white"/>
<path id="Vector_10" d="M12.0417 13C12.3868 13 12.6667 12.7202 12.6667 12.375C12.6667 12.0298 12.3868 11.75 12.0417 11.75C11.6965 11.75 11.4167 12.0298 11.4167 12.375C11.4167 12.7202 11.6965 13 12.0417 13Z" fill="white"/>
</g>
</g>
</svg>
